<?xml version="1.0" encoding="UTF-8" standalone="no"?>
<svg
   xmlns:dc="http://purl.org/dc/elements/1.1/"
   xmlns:cc="http://creativecommons.org/ns#"
   xmlns:rdf="http://www.w3.org/1999/02/22-rdf-syntax-ns#"
   xmlns:svg="http://www.w3.org/2000/svg"
   xmlns="http://www.w3.org/2000/svg"
   height="277.86407mm"
   width="204.72874mm"
   version="1.1"
   x="0px"
   y="0px"
   viewBox="0 0 773.77793 1050.1949"
   enable-background="new 0 0 100 100"
   xml:space="preserve"
   id="svg5966"><metadata
     id="metadata5972"><rdf:RDF><cc:Work
         rdf:about=""><dc:format>image/svg+xml</dc:format><dc:type
           rdf:resource="http://purl.org/dc/dcmitype/StillImage" /><dc:title></dc:title></cc:Work></rdf:RDF></metadata><defs
     id="defs5970" /><g
     transform="matrix(9.1248476,0,0,10.501949,-69.348839,0)"
     id="g5960"><g
       id="g5958"><g
         id="g5676"><circle
           cx="90.310997"
           cy="67.651001"
           r="2.0880001"
           id="circle5674" /></g><g
         id="g5682"><circle
           cx="85.271004"
           cy="62.605999"
           r="2.0869999"
           id="circle5678" /><circle
           cx="85.271004"
           cy="67.651001"
           r="2.0880001"
           id="circle5680" /></g><g
         id="g5686"><circle
           cx="80.230003"
           cy="62.605999"
           r="2.0869999"
           id="circle5684" /></g><g
         id="g5696"><circle
           cx="75.193001"
           cy="52.521"
           r="2.0880001"
           id="circle5688" /><circle
           cx="75.193001"
           cy="57.563999"
           r="2.0880001"
           id="circle5690" /><circle
           cx="75.193001"
           cy="62.605999"
           r="2.0869999"
           id="circle5692" /><circle
           cx="75.193001"
           cy="67.651001"
           r="2.0880001"
           id="circle5694" /></g><g
         id="g5706"><circle
           cx="70.153999"
           cy="52.521"
           r="2.0880001"
           id="circle5698" /><circle
           cx="70.153999"
           cy="57.563999"
           r="2.0880001"
           id="circle5700" /><circle
           cx="70.153999"
           cy="62.605999"
           r="2.0869999"
           id="circle5702" /><circle
           cx="70.153999"
           cy="67.651001"
           r="2.0880001"
           id="circle5704" /></g><g
         id="g5714"><circle
           cx="65.115997"
           cy="52.521"
           r="2.0880001"
           id="circle5708" /><circle
           cx="65.115997"
           cy="57.563999"
           r="2.0880001"
           id="circle5710" /><circle
           cx="65.115997"
           cy="62.605999"
           r="2.0869999"
           id="circle5712" /></g><g
         id="g5726"><circle
           cx="60.077"
           cy="42.433998"
           r="2.0880001"
           id="circle5716" /><circle
           cx="60.077"
           cy="47.478001"
           r="2.089"
           id="circle5718" /><circle
           cx="60.077"
           cy="52.521"
           r="2.0880001"
           id="circle5720" /><circle
           cx="60.077"
           cy="57.563999"
           r="2.0880001"
           id="circle5722" /><circle
           cx="60.077"
           cy="62.605999"
           r="2.0869999"
           id="circle5724" /></g><g
         id="g5742"><circle
           cx="55.036999"
           cy="7.131"
           r="2.0880001"
           id="circle5728" /><circle
           cx="55.036999"
           cy="12.173"
           r="2.0880001"
           id="circle5730" /><circle
           cx="55.036999"
           cy="37.390999"
           r="2.089"
           id="circle5732" /><circle
           cx="55.036999"
           cy="42.433998"
           r="2.0880001"
           id="circle5734" /><circle
           cx="55.036999"
           cy="47.478001"
           r="2.089"
           id="circle5736" /><circle
           cx="55.036999"
           cy="52.521"
           r="2.0880001"
           id="circle5738" /><circle
           cx="55.036999"
           cy="57.563999"
           r="2.0880001"
           id="circle5740" /></g><g
         id="g5760"><circle
           cx="50"
           cy="7.131"
           r="2.0880001"
           id="circle5744" /><circle
           cx="50"
           cy="12.173"
           r="2.0880001"
           id="circle5746" /><circle
           cx="50"
           cy="32.348"
           r="2.0880001"
           id="circle5748" /><circle
           cx="50"
           cy="37.390999"
           r="2.089"
           id="circle5750" /><circle
           cx="50"
           cy="42.433998"
           r="2.0880001"
           id="circle5752" /><circle
           cx="50"
           cy="47.478001"
           r="2.089"
           id="circle5754" /><circle
           cx="50"
           cy="52.521"
           r="2.0880001"
           id="circle5756" /><circle
           cx="50"
           cy="57.563999"
           r="2.0880001"
           id="circle5758" /></g><g
         id="g5764"><circle
           cx="90.310997"
           cy="72.695"
           r="2.0869999"
           id="circle5762" /></g><g
         id="g5770"><circle
           cx="80.230003"
           cy="77.737999"
           r="2.0880001"
           id="circle5766" /><circle
           cx="80.230003"
           cy="82.780998"
           r="2.0880001"
           id="circle5768" /></g><g
         id="g5780"><circle
           cx="75.193001"
           cy="72.695"
           r="2.0869999"
           id="circle5772" /><circle
           cx="75.193001"
           cy="77.737999"
           r="2.0880001"
           id="circle5774" /><circle
           cx="75.193001"
           cy="82.780998"
           r="2.0880001"
           id="circle5776" /><circle
           cx="75.193001"
           cy="87.824997"
           r="2.089"
           id="circle5778" /></g><g
         id="g5784"><circle
           cx="70.153999"
           cy="87.824997"
           r="2.089"
           id="circle5782" /></g><g
         id="g5792"><circle
           cx="65.115997"
           cy="87.824997"
           r="2.089"
           id="circle5786" /><circle
           cx="65.115997"
           cy="92.867996"
           r="2.0869999"
           id="circle5788" /><circle
           cx="65.115997"
           cy="97.911003"
           r="2.089"
           id="circle5790" /></g><g
         id="g5798"><circle
           cx="60.077"
           cy="92.867996"
           r="2.0869999"
           id="circle5794" /><circle
           cx="60.077"
           cy="97.911003"
           r="2.089"
           id="circle5796" /></g><g
         id="g5804"><circle
           cx="55.036999"
           cy="87.824997"
           r="2.089"
           id="circle5800" /><circle
           cx="55.036999"
           cy="92.867996"
           r="2.0869999"
           id="circle5802" /></g><g
         id="g5810"><circle
           cx="50"
           cy="87.824997"
           r="2.089"
           id="circle5806" /><circle
           cx="50"
           cy="92.867996"
           r="2.0869999"
           id="circle5808" /></g><g
         id="g5834"><circle
           cx="44.959999"
           cy="2.0880001"
           r="2.0880001"
           id="circle5812" /><circle
           cx="44.959999"
           cy="7.131"
           r="2.0880001"
           id="circle5814" /><circle
           cx="44.959999"
           cy="12.173"
           r="2.0880001"
           id="circle5816" /><circle
           cx="44.959999"
           cy="17.218"
           r="2.0880001"
           id="circle5818" /><path
           d="m 44.96,24.351 c -1.152,0 -2.087,-0.938 -2.087,-2.088 0,-1.155 0.935,-2.088 2.087,-2.088 1.152,0 2.088,0.933 2.088,2.088 0,1.15 -0.936,2.088 -2.088,2.088 z"
           id="path5820" /><circle
           cx="44.959999"
           cy="27.302999"
           r="2.0880001"
           id="circle5822" /><circle
           cx="44.959999"
           cy="32.348"
           r="2.0880001"
           id="circle5824" /><circle
           cx="44.959999"
           cy="37.390999"
           r="2.089"
           id="circle5826" /><circle
           cx="44.959999"
           cy="42.433998"
           r="2.0880001"
           id="circle5828" /><circle
           cx="44.959999"
           cy="47.478001"
           r="2.089"
           id="circle5830" /><circle
           cx="44.959999"
           cy="52.521"
           r="2.0880001"
           id="circle5832" /></g><g
         id="g5856"><circle
           cx="39.921001"
           cy="2.0880001"
           r="2.0880001"
           id="circle5836" /><circle
           cx="39.921001"
           cy="7.131"
           r="2.0880001"
           id="circle5838" /><circle
           cx="39.921001"
           cy="12.173"
           r="2.0880001"
           id="circle5840" /><circle
           cx="39.921001"
           cy="17.218"
           r="2.0880001"
           id="circle5842" /><path
           d="m 39.921,24.351 c -1.152,0 -2.088,-0.938 -2.088,-2.088 0,-1.155 0.936,-2.088 2.088,-2.088 1.153,0 2.087,0.933 2.087,2.088 0,1.15 -0.933,2.088 -2.087,2.088 z"
           id="path5844" /><circle
           cx="39.921001"
           cy="27.302999"
           r="2.0880001"
           id="circle5846" /><circle
           cx="39.921001"
           cy="32.348"
           r="2.0880001"
           id="circle5848" /><circle
           cx="39.921001"
           cy="37.390999"
           r="2.089"
           id="circle5850" /><circle
           cx="39.921001"
           cy="42.433998"
           r="2.0880001"
           id="circle5852" /><circle
           cx="39.921001"
           cy="47.478001"
           r="2.089"
           id="circle5854" /></g><g
         id="g5876"><circle
           cx="34.881001"
           cy="2.0880001"
           r="2.0880001"
           id="circle5858" /><circle
           cx="34.881001"
           cy="7.131"
           r="2.0880001"
           id="circle5860" /><circle
           cx="34.881001"
           cy="12.173"
           r="2.0880001"
           id="circle5862" /><circle
           cx="34.881001"
           cy="17.218"
           r="2.0880001"
           id="circle5864" /><path
           d="m 34.881,24.351 c -1.149,0 -2.085,-0.938 -2.085,-2.088 0,-1.155 0.936,-2.088 2.085,-2.088 1.153,0 2.09,0.933 2.09,2.088 0,1.15 -0.936,2.088 -2.09,2.088 z"
           id="path5866" /><circle
           cx="34.881001"
           cy="27.302999"
           r="2.0880001"
           id="circle5868" /><circle
           cx="34.881001"
           cy="32.348"
           r="2.0880001"
           id="circle5870" /><circle
           cx="34.881001"
           cy="37.390999"
           r="2.089"
           id="circle5872" /><circle
           cx="34.881001"
           cy="42.433998"
           r="2.0880001"
           id="circle5874" /></g><g
         id="g5888"><circle
           cx="29.844"
           cy="7.131"
           r="2.0880001"
           id="circle5878" /><circle
           cx="29.844"
           cy="12.173"
           r="2.0880001"
           id="circle5880" /><circle
           cx="29.844"
           cy="17.218"
           r="2.0880001"
           id="circle5882" /><path
           d="m 29.844,24.351 c -1.155,0 -2.088,-0.938 -2.088,-2.088 0,-1.155 0.933,-2.088 2.088,-2.088 1.152,0 2.087,0.933 2.087,2.088 0,1.15 -0.935,2.088 -2.087,2.088 z"
           id="path5884" /><circle
           cx="29.844"
           cy="27.302999"
           r="2.0880001"
           id="circle5886" /></g><g
         id="g5906"><path
           d="m 24.804,9.218 c -1.152,0 -2.086,-0.935 -2.086,-2.087 0,-1.152 0.935,-2.088 2.086,-2.088 1.155,0 2.088,0.937 2.088,2.088 0,1.153 -0.933,2.087 -2.088,2.087 z"
           id="path5890" /><path
           d="m 24.804,14.262 c -1.152,0 -2.086,-0.937 -2.086,-2.088 0,-1.152 0.935,-2.088 2.086,-2.088 1.155,0 2.088,0.936 2.088,2.088 0,1.151 -0.933,2.088 -2.088,2.088 z"
           id="path5892" /><path
           d="m 24.804,19.306 c -1.152,0 -2.086,-0.936 -2.086,-2.088 0,-1.155 0.935,-2.088 2.086,-2.088 1.155,0 2.088,0.934 2.088,2.088 0,1.152 -0.933,2.088 -2.088,2.088 z"
           id="path5894" /><path
           d="m 24.804,24.351 c -1.152,0 -2.086,-0.938 -2.086,-2.088 0,-1.155 0.935,-2.088 2.086,-2.088 1.155,0 2.088,0.933 2.088,2.088 0,1.15 -0.933,2.088 -2.088,2.088 z"
           id="path5896" /><path
           d="m 24.804,29.391 c -1.152,0 -2.086,-0.935 -2.086,-2.087 0,-1.154 0.935,-2.088 2.086,-2.088 1.155,0 2.088,0.935 2.088,2.088 0,1.153 -0.933,2.087 -2.088,2.087 z"
           id="path5898" /><path
           d="m 24.804,59.652 c -1.152,0 -2.086,-0.935 -2.086,-2.088 0,-1.155 0.935,-2.088 2.086,-2.088 1.155,0 2.088,0.933 2.088,2.088 0,1.155 -0.933,2.088 -2.088,2.088 z"
           id="path5900" /><path
           d="m 24.804,64.693 c -1.152,0 -2.086,-0.933 -2.086,-2.088 0,-1.151 0.935,-2.086 2.086,-2.086 1.155,0 2.088,0.935 2.088,2.086 0,1.157 -0.933,2.088 -2.088,2.088 z"
           id="path5902" /><path
           d="m 24.804,69.739 c -1.152,0 -2.086,-0.938 -2.086,-2.089 0,-1.151 0.935,-2.088 2.086,-2.088 1.155,0 2.088,0.937 2.088,2.088 0,1.153 -0.933,2.089 -2.088,2.089 z"
           id="path5904" /></g><g
         id="g5922"><circle
           cx="19.764999"
           cy="7.131"
           r="2.0880001"
           id="circle5908" /><circle
           cx="19.764999"
           cy="12.173"
           r="2.0880001"
           id="circle5910" /><circle
           cx="19.764999"
           cy="17.218"
           r="2.0880001"
           id="circle5912" /><path
           d="m 19.765,24.351 c -1.152,0 -2.088,-0.938 -2.088,-2.088 0,-1.155 0.937,-2.088 2.088,-2.088 1.154,0 2.09,0.933 2.09,2.088 0,1.15 -0.936,2.088 -2.09,2.088 z"
           id="path5914" /><circle
           cx="19.764999"
           cy="27.302999"
           r="2.0880001"
           id="circle5916" /><circle
           cx="19.764999"
           cy="62.605999"
           r="2.0869999"
           id="circle5918" /><circle
           cx="19.764999"
           cy="67.651001"
           r="2.0880001"
           id="circle5920" /></g><g
         id="g5934"><path
           d="m 14.728,14.262 c -1.154,0 -2.088,-0.937 -2.088,-2.088 0,-1.152 0.934,-2.088 2.088,-2.088 1.15,0 2.087,0.936 2.087,2.088 -0.001,1.151 -0.937,2.088 -2.087,2.088 z"
           id="path5924" /><path
           d="m 14.728,19.306 c -1.154,0 -2.088,-0.936 -2.088,-2.088 0,-1.155 0.934,-2.088 2.088,-2.088 1.15,0 2.087,0.934 2.087,2.088 -0.001,1.152 -0.937,2.088 -2.087,2.088 z"
           id="path5926" /><path
           d="m 14.728,24.351 c -1.154,0 -2.088,-0.938 -2.088,-2.088 0,-1.155 0.934,-2.088 2.088,-2.088 1.15,0 2.087,0.933 2.087,2.088 -0.001,1.15 -0.937,2.088 -2.087,2.088 z"
           id="path5928" /><path
           d="m 14.728,29.391 c -1.154,0 -2.088,-0.935 -2.088,-2.087 0,-1.154 0.934,-2.088 2.088,-2.088 1.15,0 2.087,0.935 2.087,2.088 -0.001,1.153 -0.937,2.087 -2.087,2.087 z"
           id="path5930" /><path
           d="m 14.728,34.436 c -1.154,0 -2.088,-0.937 -2.088,-2.089 0,-1.153 0.934,-2.086 2.088,-2.086 1.15,0 2.087,0.933 2.087,2.086 -0.001,1.153 -0.937,2.089 -2.087,2.089 z"
           id="path5932" /></g><g
         id="g5944"><circle
           cx="9.6879997"
           cy="12.173"
           r="2.0880001"
           id="circle5936" /><circle
           cx="9.6879997"
           cy="17.218"
           r="2.0880001"
           id="circle5938" /><path
           d="m 9.688,24.351 c -1.152,0 -2.086,-0.938 -2.086,-2.088 0,-1.155 0.934,-2.088 2.086,-2.088 1.153,0 2.089,0.933 2.089,2.088 -10e-4,1.15 -0.937,2.088 -2.089,2.088 z"
           id="path5940" /><circle
           cx="9.6879997"
           cy="27.302999"
           r="2.0880001"
           id="circle5942" /></g><g
         id="g5950"><path
           d="m 24.804,74.782 c -1.152,0 -2.086,-0.935 -2.086,-2.091 0,-1.15 0.935,-2.084 2.086,-2.084 1.155,0 2.088,0.934 2.088,2.084 0,1.157 -0.933,2.091 -2.088,2.091 z"
           id="path5946" /><path
           d="m 24.804,79.826 c -1.152,0 -2.086,-0.934 -2.086,-2.09 0,-1.151 0.935,-2.088 2.086,-2.088 1.155,0 2.088,0.937 2.088,2.088 0,1.157 -0.933,2.09 -2.088,2.09 z"
           id="path5948" /></g><g
         id="g5956"><circle
           cx="19.764999"
           cy="72.695"
           r="2.0869999"
           id="circle5952" /><circle
           cx="19.764999"
           cy="77.737999"
           r="2.0880001"
           id="circle5954" /></g></g></g></svg>